<svg xmlns="http://www.w3.org/2000/svg" viewBox="0 0 1000 1000">
  <circle cx="500" cy="500" r="500" fill="currentColor"/>
  <path d="M347.5 612.5c0-27.5 22.5-50 50-50s50 22.5 50 50-22.5 50-50 50-50-22.5-50-50zm255-255c0-41.25 33.75-75 75-75s75 33.75 75 75-33.75 75-75 75-75-33.75-75-75zm-52.5 0c0 70 57.5 127.5 127.5 127.5 11.25 0 22.5-1.25 32.5-5L625 612.5c0 41.25-33.75 75-75 75-31.25 0-57.5-18.75-68.75-45L375 605c-7.5 3.75-15 5-25 5-41.25 0-75-33.75-75-75 0-31.25 18.75-57.5 45-68.75L357.5 360c0-41.25 33.75-75 75-75 31.25 0 57.5 18.75 68.75 45l106.25 37.5c7.5-3.75 15-5 25-5 70 0 127.5 57.5 127.5 127.5S702.5 617.5 632.5 617.5c-11.25 0-22.5-1.25-32.5-5L487.5 480c0-41.25 33.75-75 75-75 31.25 0 57.5 18.75 68.75 45l106.25 37.5c7.5-3.75 15-5 25-5 41.25 0 75 33.75 75 75s-33.75 75-75 75c-31.25 0-57.5-18.75-68.75-45L587.5 550c-7.5 3.75-15 5-25 5-70 0-127.5-57.5-127.5-127.5z" fill="white"/>
</svg>
